<?xml version="1.0" encoding="UTF-8" standalone="no"?>
<svg
   transform="scale(1)"
   id="_0688_Artificial_Intelligence_3"
   viewBox="0 0 500 500"
   class="show_show__wrapper__graphic__5Waiy "
   version="1.1"
   sodipodi:docname="ai.svg"
   inkscape:version="1.3.2 (091e20e, 2023-11-25, custom)"
   xmlns:inkscape="http://www.inkscape.org/namespaces/inkscape"
   xmlns:sodipodi="http://sodipodi.sourceforge.net/DTD/sodipodi-0.dtd"
   xmlns="http://www.w3.org/2000/svg"
   xmlns:svg="http://www.w3.org/2000/svg">
  <sodipodi:namedview
     id="namedview23"
     pagecolor="#ffffff"
     bordercolor="#000000"
     borderopacity="0.25"
     inkscape:showpageshadow="2"
     inkscape:pageopacity="0.0"
     inkscape:pagecheckerboard="0"
     inkscape:deskcolor="#d1d1d1"
     inkscape:zoom="0.777"
     inkscape:cx="299.8713"
     inkscape:cy="454.31145"
     inkscape:window-width="1450"
     inkscape:window-height="1250"
     inkscape:window-x="961"
     inkscape:window-y="81"
     inkscape:window-maximized="0"
     inkscape:current-layer="_0688_Artificial_Intelligence_3" />
  <title
     id="title1">React</title>
  <defs
     id="defs1">
    <style
       id="style1">.cls-1{fill:#fff;}.cls-2{opacity:.11;}.cls-2,.cls-3,.cls-4,.cls-5,.cls-6{fill:none;}.cls-7{fill:#a5a5a5;}.cls-8{fill:#e6e6e6;}.cls-3{opacity:.48;}.cls-4{opacity:.12;}.cls-9{fill:#24285b;}.cls-10{fill:#000001;}.cls-5{opacity:.34;}.cls-6{opacity:.33;}.cls-11{fill:#b7ed27;}.cls-12{fill:#5a9aaf;}</style>
  </defs>
  <g
     class="cls-6"
     id="bg">
    <circle
       class="cls-8"
       cx="249.31"
       cy="249.52"
       r="214"
       id="circle1" />
  </g>
  <path
     class="cls-7"
     d="m 471.55,136.41 c 0,0 11.62,-23.96 -27.45,-37.15 -39.07,-13.2 -68.01,-14.8 -68.01,-14.8 l -1.56,117.94 c 0,0 81.59,-18.49 97.02,-65.98 z"
     id="path1" />
  <path
     class="cls-12"
     d="m 113.62,449.35 c 0,0 63.21,38.81 142.54,22.37 79.32,-16.44 67.89,-112.91 55.74,-170.08 -12.15,-57.17 -93.93,-62.84 -115.21,-55.36 -21.28,7.48 -83.06,203.07 -83.06,203.07 z"
     id="path2" />
  <path
     class="cls-12"
     d="m 162.07,246.28 c 0,0 -92.42,106.47 -78.13,164.88 14.29,58.42 63.6,42.69 73.61,8.39 10,-34.3 11.43,-43.59 33.59,-99.33 22.15,-55.74 -29.06,-73.94 -29.06,-73.94 z"
     id="path3" />
  <g
     class="cls-3"
     id="g4">
    <path
       class="cls-1"
       d="m 162.07,246.28 c 0,0 -92.42,106.47 -78.13,164.88 14.29,58.42 63.6,42.69 73.61,8.39 10,-34.3 11.43,-43.59 33.59,-99.33 22.15,-55.74 -29.06,-73.94 -29.06,-73.94 z"
       id="path4" />
  </g>
  <path
     class="cls-9"
     d="m 126.72,423.88 c -3.92,0 -7.6,-0.34 -11.04,-1.02 -11.99,-2.37 -21.47,-8.9 -27.44,-18.88 -14.5,-24.27 -12.23,-50.86 6.56,-76.91 13.07,-18.12 29.85,-29.64 30.56,-30.13 L 139.72,318 c -0.14,0.1 -14.19,9.82 -24.58,24.44 -12.42,17.47 -14.06,33.32 -5.02,48.45 2.28,3.82 5.52,5.96 10.49,6.95 28.35,5.61 90.73,-31.02 123.39,-55.43 l 15.26,20.41 c -0.94,0.7 -23.24,17.32 -51.46,33.08 -33.28,18.59 -60.48,27.96 -81.09,27.96 z"
     id="path5" />
  <path
     class="cls-12"
     d="m 288.76,149.43 c 0,0 -7.3,62.35 29.5,60.69 36.8,-1.66 31.72,-35.71 26.24,-62.27 -5.48,-26.56 -55.47,-23.61 -55.74,1.58 z"
     id="path6" />
  <g
     class="cls-2"
     id="g7">
    <path
       class="cls-10"
       d="m 288.76,149.43 c 0,0 -7.3,62.35 29.5,60.69 36.8,-1.66 31.72,-35.71 26.24,-62.27 -5.48,-26.56 -55.47,-23.61 -55.74,1.58 z"
       id="path7" />
  </g>
  <path
     class="cls-9"
     d="m 136.85,202.4 c 0,0 -13.85,85.45 83.34,75.55 97.19,-9.9 120.06,-36.96 109.58,-117.28 -10.48,-80.32 -97.87,-70.71 -126.59,-63.6 -28.72,7.1 -69.62,41.58 -66.32,105.33 z"
     id="path8" />
  <path
     class="cls-12"
     d="m 118.24,175.94 c 0,0 -11.53,61.71 25.3,62.56 36.83,0.85 34.08,-33.47 30.42,-60.34 -3.66,-26.87 -53.73,-27.34 -55.72,-2.23 z"
     id="path9" />
  <path
     class="cls-12"
     d="m 111.91,174.69 c 0,0 -11.58,61 20.99,63.67 32.57,2.66 30.9,-31.72 28.26,-58.71 -2.64,-26.99 -46.93,-29.91 -49.25,-4.96 z"
     id="path10" />
  <g
     class="cls-3"
     id="g11">
    <path
       class="cls-1"
       d="m 111.91,174.69 c 0,0 -11.58,61 20.99,63.67 32.57,2.66 30.9,-31.72 28.26,-58.71 -2.64,-26.99 -46.93,-29.91 -49.25,-4.96 z"
       id="path11" />
  </g>
  <path
     class="cls-8"
     d="m 251.63,223.27 6.67,212.64 c 0,0 132.44,24.61 219.15,-73.05 l -4.28,-233.65 c 0,0 -21.08,83.65 -221.54,94.06 z"
     id="path12" />
  <ellipse
     class="cls-1"
     cx="203.17395"
     cy="205.13454"
     rx="22.370001"
     ry="25.940001"
     transform="rotate(-5.44)"
     id="ellipse12" />
  <ellipse
     class="cls-1"
     cx="270.79361"
     cy="198.5414"
     rx="20.889999"
     ry="25.940001"
     transform="rotate(-5.44)"
     id="ellipse13" />
  <circle
     class="cls-12"
     cx="132.53"
     cy="307.48999"
     r="29.540001"
     id="circle13" />
  <path
     class="cls-7"
     d="m 395.71,248.49 c -1.83,0 -3.55,-1.15 -4.19,-2.98 -0.81,-2.31 0.42,-4.84 2.73,-5.64 0.38,-0.13 38.35,-13.51 57.39,-32.7 1.73,-1.74 4.53,-1.75 6.27,-0.03 1.74,1.72 1.75,4.53 0.03,6.27 -20.5,20.67 -59.13,34.26 -60.77,34.83 -0.48,0.17 -0.97,0.25 -1.46,0.25 z"
     id="path15" />
  <path
     class="cls-7"
     d="m 396.46,275.74 c -1.83,0 -3.55,-1.15 -4.19,-2.98 -0.81,-2.31 0.42,-4.84 2.73,-5.64 0.38,-0.13 38.35,-13.51 57.39,-32.7 1.72,-1.74 4.53,-1.75 6.27,-0.02 1.74,1.72 1.75,4.53 0.02,6.27 -20.5,20.66 -59.13,34.26 -60.77,34.83 -0.48,0.17 -0.97,0.25 -1.46,0.25 z"
     id="path16" />
  <path
     class="cls-7"
     d="m 396.46,304.8 c -1.83,0 -3.55,-1.15 -4.19,-2.98 -0.81,-2.31 0.42,-4.84 2.73,-5.64 0.38,-0.13 38.35,-13.51 57.39,-32.7 1.72,-1.74 4.53,-1.75 6.27,-0.02 1.74,1.72 1.75,4.53 0.02,6.27 -20.5,20.66 -59.13,34.26 -60.77,34.83 -0.48,0.17 -0.97,0.25 -1.46,0.25 z"
     id="path17" />
  <g
     class="cls-5"
     id="g18">
    <path
       class="cls-7"
       d="m 300.7,366.67 c 0,0 103.86,-15.41 154.83,-66.3 v 52.01 c 0,0 -43.83,55.26 -154.83,60.98 z"
       id="path18" />
  </g>
  <g
     class="cls-4"
     id="g19">
    <path
       class="cls-1"
       d="m 211.1,108.67 c 0,0 -34.73,8.14 -30.96,24.59 3.77,16.46 23.86,2.92 43.32,-3.18 19.46,-6.1 7.6,-29.18 -12.36,-21.41 z"
       id="path19" />
  </g>
  <g
     class="cls-4"
     id="g20">
    <circle
       class="cls-1"
       cx="252.97"
       cy="115.4"
       r="11.52"
       id="circle19" />
  </g>
  <path
     class="cls-12"
     d="m 256.22,369.37 c 0,0 -15.06,-7.94 -19.19,-36.52 -4.13,-28.58 8.89,-41.29 22.23,-38.11 13.34,3.18 19.96,52.08 -3.04,74.63 z"
     id="path20" />
  <g
     class="cls-3"
     id="g21">
    <path
       class="cls-1"
       d="m 256.22,369.37 c 0,0 -15.06,-7.94 -19.19,-36.52 -4.13,-28.58 8.89,-41.29 22.23,-38.11 13.34,3.18 19.96,52.08 -3.04,74.63 z"
       id="path21" />
  </g>
  <rect
     class="cls-11"
     x="45.16"
     y="33.009998"
     width="114.64"
     height="64.739998"
     rx="13.59"
     ry="13.59"
     id="rect21" />
  <circle
     class="cls-9"
     cx="77.660004"
     cy="64.349998"
     r="8.2399998"
     id="circle21" />
  <circle
     class="cls-9"
     cx="102.48"
     cy="64.349998"
     r="8.2399998"
     id="circle22" />
  <circle
     class="cls-9"
     cx="127.03"
     cy="64.349998"
     r="8.2399998"
     id="circle23" />
  <path
     id="rect24"
     style="fill:#ffffff;fill-rule:evenodd;stroke:#b7ed27;stroke-width:5.7026;stroke-opacity:1"
     d="m 297.11538,263.23139 c 20.93893,2.26948 40.5794,-3.9011 60.01177,-11.42427 0.60194,-0.23303 1.14456,0.30175 1.14456,0.94722 v 56.73425 c 0,0.64547 -0.55468,1.12094 -1.14456,1.38299 -19.27258,8.56179 -39.21405,12.77583 -60.01177,11.42428 -0.64411,-0.0419 -1.14455,-0.30175 -1.14455,-0.94722 v -56.73426 c 0,-0.64547 0.50284,-1.45253 1.14455,-1.38299 z"
     sodipodi:nodetypes="sssssssss" />
  <path
     style="fill:#87bb00;fill-opacity:0;fill-rule:evenodd;stroke:#b7ed27;stroke-width:8.77508;stroke-linecap:round;stroke-linejoin:miter;stroke-dasharray:none;stroke-opacity:1;paint-order:markers stroke fill"
     d="M 314.65009,286.55931 337.35,304.38686 373.7443,253.78533"
     id="path24"
     sodipodi:nodetypes="ccc" />
</svg>
